<svg width="24" height="24" viewBox="0 0 24 24" fill="none" xmlns="http://www.w3.org/2000/svg">
  <path d="M21 12.2C21 11.5 20.9 10.8 20.8 10.2H12V13.8H17C16.8 14.9 16.1 15.9 15.1 16.5V18.8H18.1C19.9 17.1 21 14.9 21 12.2Z" fill="#4285F4"/>
  <path d="M12 21C14.4 21 16.5 20.2 18.1 18.8L15.1 16.5C14.3 17.1 13.2 17.5 12 17.5C9.7 17.5 7.8 15.9 7.1 13.8H4V16.2C5.6 19.2 8.6 21 12 21Z" fill="#34A853"/>
  <path d="M7.1 13.8C6.9 13.2 6.8 12.6 6.8 12C6.8 11.4 6.9 10.8 7.1 10.2V7.8H4C3.4 9 3 10.5 3 12C3 13.5 3.4 15 4 16.2L7.1 13.8Z" fill="#FBBC05"/>
  <path d="M12 6.5C13.3 6.5 14.5 7 15.4 7.9L18.2 5.1C16.5 3.5 14.4 2.5 12 2.5C8.6 2.5 5.6 4.3 4 7.8L7.1 10.2C7.8 8.1 9.7 6.5 12 6.5Z" fill="#EA4335"/>
</svg>
