<svg width="32" height="32" viewBox="0 0 32 32" fill="none" xmlns="http://www.w3.org/2000/svg">
  <path d="M16 2.5C8.55 2.5 2.5 8.55 2.5 16C2.5 18.62 3.24 21.15 4.63 23.35L3 29.5L9.33 27.9C11.44 29.12 13.84 29.75 16 29.75C23.45 29.75 29.5 23.7 29.5 16.25C29.5 8.55 23.45 2.5 16 2.5Z" fill="white"/>
  <path d="M22.31 19.49C22.04 19.34 20.71 18.69 20.46 18.6C20.21 18.5 20.03 18.46 19.86 18.73C19.69 18.99 19.2 19.56 19.05 19.73C18.9 19.9 18.75 19.92 18.48 19.79C18.21 19.64 17.33 19.36 16.29 18.43C15.48 17.71 14.92 16.82 14.77 16.55C14.63 16.28 14.75 16.14 14.89 16C15.01 15.88 15.16 15.69 15.29 15.54C15.42 15.39 15.47 15.29 15.56 15.12C15.65 14.95 15.61 14.8 15.54 14.66C15.47 14.51 14.92 13.18 14.7 12.67C14.48 12.14 14.26 12.22 14.08 12.21L13.59 12.2C13.42 12.2 13.14 12.26 12.9 12.53C12.65 12.79 11.98 13.41 11.98 14.69C11.98 15.96 12.93 17.19 13.06 17.36C13.2 17.53 14.87 20.1 17.42 21.2C18.03 21.46 18.5 21.62 18.88 21.74C19.49 21.93 20.04 21.9 20.49 21.83C21 21.75 22.07 21.18 22.3 20.54C22.53 19.9 22.53 19.35 22.46 19.22C22.4 19.09 22.21 19.04 21.95 18.9L22.31 19.49Z" fill="#25D366"/>
</svg>
